<?xml version="1.0" encoding="UTF-8"?>
<svg id="Layer_1" data-name="Layer 1" xmlns="http://www.w3.org/2000/svg" xmlns:xlink="http://www.w3.org/1999/xlink" viewBox="0 0 3000 3000">
  <defs>
    <style>
      .cls-1 {
        fill: #30343a;
        font-family: Sora-Medium, Sora;
        font-size: 604.76px;
        font-weight: 500;
      }

      .cls-2 {
        fill: url(#linear-gradient-2);
      }

      .cls-3 {
        letter-spacing: -.02em;
      }

      .cls-4 {
        letter-spacing: -.02em;
      }

      .cls-5 {
        fill: url(#linear-gradient);
      }
    </style>
    <linearGradient id="linear-gradient" x1="1176.88" y1="1899.62" x2="813.01" y2="1599.01" gradientUnits="userSpaceOnUse">
      <stop offset="0" stop-color="#6d33f7"/>
      <stop offset=".05" stop-color="#6c3df5"/>
      <stop offset=".15" stop-color="#6b5bf2"/>
      <stop offset=".19" stop-color="#6b6df0"/>
      <stop offset=".39" stop-color="#6b65f0"/>
      <stop offset=".67" stop-color="#6b52f3"/>
      <stop offset="1" stop-color="#6d33f7"/>
    </linearGradient>
    <linearGradient id="linear-gradient-2" x1="2010.55" y1="2493.68" x2="2342.34" y2="2830.34" gradientUnits="userSpaceOnUse">
      <stop offset="0" stop-color="#6d33f7"/>
      <stop offset=".1" stop-color="#6c3df5"/>
      <stop offset=".27" stop-color="#6b5bf2"/>
      <stop offset=".36" stop-color="#6b6df0"/>
      <stop offset=".51" stop-color="#6b65f0"/>
      <stop offset=".74" stop-color="#6b52f3"/>
      <stop offset="1" stop-color="#6d33f7"/>
    </linearGradient>
  </defs>
  <g>
    <path class="cls-5" d="M1011.59,1501.45h-277.1c-.77,0-1.5.3-2.04.85l-162.38,162.38c-1.79,1.79-.53,4.86,2.01,4.87h439.51c16.36,0,29.63-13.27,29.63-29.63v-108.84c0-16.36-13.26-29.63-29.63-29.63Z"/>
    <path class="cls-2" d="M687.84,1342.53c20.26,0,36.68,16.42,36.68,36.68v78.31c0,9.07,7.36,16.43,16.43,16.43h11.15c4.36,0,8.54-1.73,11.62-4.81l262.83-262.83c10.35-10.35,3.02-28.05-11.62-28.05h-416.1c-22.16,0-40.12,17.96-40.12,40.12v107.73c0,9.07,7.36,16.43,16.43,16.43h112.69Z"/>
  </g>
  <text class="cls-1" transform="translate(1114.01 1597.46) scale(.97 1)"><tspan class="cls-4" x="0" y="0">z</tspan><tspan class="cls-3" x="283.03" y="0">oru</tspan></text>
</svg>