<?xml version="1.0" encoding="UTF-8"?>
<svg id="Layer_1" data-name="Layer 1" xmlns="http://www.w3.org/2000/svg" xmlns:xlink="http://www.w3.org/1999/xlink" viewBox="0 0 3000 3000">
  <defs>
    <style>
      .cls-1 {
        fill: #30343a;
        font-family: Sora-Medium, Sora;
        font-size: 480.92px;
        font-weight: 500;
      }

      .cls-2 {
        fill: url(#linear-gradient-2);
      }

      .cls-3 {
        letter-spacing: -.02em;
      }

      .cls-4 {
        letter-spacing: -.02em;
      }

      .cls-5 {
        fill: url(#linear-gradient);
      }
    </style>
    <linearGradient id="linear-gradient" x1="985.26" y1="1849.18" x2="695.9" y2="1610.13" gradientUnits="userSpaceOnUse">
      <stop offset="0" stop-color="#6d33f7"/>
      <stop offset=".05" stop-color="#6c3df5"/>
      <stop offset=".15" stop-color="#6b5bf2"/>
      <stop offset=".19" stop-color="#6b6df0"/>
      <stop offset=".39" stop-color="#6b65f0"/>
      <stop offset=".67" stop-color="#6b52f3"/>
      <stop offset="1" stop-color="#6d33f7"/>
    </linearGradient>
    <linearGradient id="linear-gradient-2" x1="1648.21" y1="2321.59" x2="1912.06" y2="2589.3" gradientUnits="userSpaceOnUse">
      <stop offset="0" stop-color="#6d33f7"/>
      <stop offset=".1" stop-color="#6c3df5"/>
      <stop offset=".27" stop-color="#6b5bf2"/>
      <stop offset=".36" stop-color="#6b6df0"/>
      <stop offset=".51" stop-color="#6b65f0"/>
      <stop offset=".74" stop-color="#6b52f3"/>
      <stop offset="1" stop-color="#6d33f7"/>
    </linearGradient>
  </defs>
  <g>
    <path class="cls-5" d="M853.82,1532.55h-220.35c-.61,0-1.19.24-1.62.67l-129.13,129.13c-1.43,1.43-.42,3.87,1.6,3.87h349.51c13.01,0,23.56-10.55,23.56-23.56v-86.55c0-13.01-10.55-23.56-23.56-23.56Z"/>
    <path class="cls-2" d="M596.36,1406.17c16.11,0,29.17,13.06,29.17,29.17v62.27c0,7.22,5.85,13.07,13.07,13.07h8.86c3.47,0,6.79-1.38,9.24-3.83l209.01-209.01c8.23-8.23,2.4-22.3-9.24-22.3h-330.89c-17.62,0-31.9,14.28-31.9,31.9v85.67c0,7.22,5.85,13.07,13.07,13.07h89.62Z"/>
  </g>
  <text class="cls-1" transform="translate(935.27 1608.9) scale(.97 1)"><tspan class="cls-3" x="0" y="0">z</tspan><tspan class="cls-4" x="225.07" y="0">oru.ai</tspan></text>
</svg>