<?xml version="1.0" encoding="UTF-8"?>
<svg id="Layer_1" data-name="Layer 1" xmlns="http://www.w3.org/2000/svg" xmlns:xlink="http://www.w3.org/1999/xlink" viewBox="0 0 3000 3000">
  <defs>
    <style>
      .cls-1 {
        fill: url(#linear-gradient-2);
      }

      .cls-2 {
        fill: url(#linear-gradient);
      }
    </style>
    <linearGradient id="linear-gradient" x1="2459.43" y1="2800.59" x2="1439.03" y2="1957.61" gradientUnits="userSpaceOnUse">
      <stop offset="0" stop-color="#6d33f7"/>
      <stop offset=".05" stop-color="#6c3df5"/>
      <stop offset=".15" stop-color="#6b5bf2"/>
      <stop offset=".19" stop-color="#6b6df0"/>
      <stop offset=".39" stop-color="#6b65f0"/>
      <stop offset=".67" stop-color="#6b52f3"/>
      <stop offset="1" stop-color="#6d33f7"/>
    </linearGradient>
    <linearGradient id="linear-gradient-2" x1="4797.21" y1="4466.46" x2="5727.63" y2="5410.51" gradientUnits="userSpaceOnUse">
      <stop offset="0" stop-color="#6d33f7"/>
      <stop offset=".1" stop-color="#6c3df5"/>
      <stop offset=".27" stop-color="#6b5bf2"/>
      <stop offset=".36" stop-color="#6b6df0"/>
      <stop offset=".51" stop-color="#6b65f0"/>
      <stop offset=".74" stop-color="#6b52f3"/>
      <stop offset="1" stop-color="#6d33f7"/>
    </linearGradient>
  </defs>
  <path class="cls-2" d="M1995.91,1684.03h-777.04c-2.15,0-4.2.85-5.72,2.37l-455.36,455.36c-5.03,5.03-1.47,13.63,5.64,13.64h1232.48c45.89,0,83.08-37.2,83.08-83.08v-305.21c0-45.89-37.2-83.08-83.08-83.08Z"/>
  <path class="cls-1" d="M1088.03,1238.36c56.8,0,102.85,46.05,102.85,102.85v219.6c0,25.45,20.63,46.07,46.07,46.07h31.26c12.22,0,23.94-4.85,32.58-13.5l737.04-737.04c29.03-29.03,8.47-78.65-32.58-78.65H838.43c-62.13,0-112.49,50.37-112.49,112.49v302.09c0,25.45,20.63,46.07,46.07,46.07h316.02Z"/>
</svg>